/* XPM */
static char * metal1_xpm[] = {
"64 64 9 1",
" 	c None",
".	c #464D4F",
"+	c #383F40",
"@	c #382B2F",
"#	c #62797E",
"$	c #4B3F38",
"%	c #536265",
"&	c #141413",
"*	c #000000",
"......+.+.+.+++@......+.+.+.+++@......+.+.+.+++@......+.+.+.+++@",
".++++++++++++++@.++++++++++++++@.++++++++++++++@.++++++++++++++@",
".+#++++++++++#+@.+#++++++++++#+@.+#++++++++++#+@.+#++++++++++#+@",
".@++++++++++@++@.@++++++++++@++@.@++++++++++@++@.@++++++++++@++@",
".++++++++++++++@.++++++++++++++@.++++++++++++++@.++++++++++++++@",
".++++++++++++++@.++++++++++++++@.++++++++++++++@.++++++++++++++@",
".++++++++++++++@.++++++++++++++@.++++++++++++++@.++++++++++++++@",
".++++++++++++++@.++++++++++++++@.++++++++++++++@.++++++++++++++@",
".++++++++++++++@.++++++++++++++@.++++++++++++++@.++++++++++++++@",
"#..............+#..............+#..............+#..............+",
".++++++++++++++@.++++++++++++++@.++++++++++++++@.++++++++++++++@",
"#..............+#..............+#..............+#..............+",
"#..............@#..............@#..............@#..............@",
"#..............+#..............+#..............+#..............+",
"#..............@#..............@#..............@#..............@",
"#..............+#......+@@@....+#..............+#..............+",
"#..............+#.....+@$$++...+#..............+#..............+",
"#..............+#....+@$$..+%..+#..............+#..............+",
"#..............+#....@$$.$..%..+#..............+#..............+",
"#...............#....@+$$..#%...#...............#...............",
"%..............+%.....%..##%...+%..............+%..............+",
"#...............#......##%......#...............#...............",
"%..............+%..............+%..............+%..............+",
"#...............#....@+.........#...............#......+@@@.....",
"%..............+%...@$.%.......+%..............+%.....+@$$++...+",
"%..............+%...+.#%.......+%..............+%....+@$$..+%..+",
"%..............+%....%%........+%..............+%....@$$.$..%..+",
"%..............@%..............@%..............@%....@+$$..#%..@",
"%..............+%..............+%..............+%.....%..##%...+",
"%..............@%..............@%..............@%......##%.....@",
"%..............+%..............+%..............+%..............+",
"%......+@@@....@%..............@%..............@%....@+........@",
"%.....+@$$++...@%..............@%..............@%...@$.%.......@",
"%....+@$$..+%..@%..............@%..............@%...+.#%.......@",
"%....@$$.$..%..@%..............@%..............@%....%%........@",
"%....@+$$..#%..@%..............@%..............@%..............@",
"%.....%..##%...@%..............@%..............@%..............@",
"%......##%.....@%..............@%..............@%..............@",
"%..............@%..............@%..............@%..............@",
"%....@+........@%..............@%......+@@@....@%..............@",
"%...@$.%.......@%..............@%.....+@$$++...@%..............@",
"....+.#%.......@...............@.....+@$$..+%..@...............@",
"%....%%........@%..............@%....@$$.$..%..@%..............@",
"...............@...............@.....@+$$..#%..@...............@",
"%..............@%..............@%.....%..##%...@%..............@",
"...............@...............@.......##%.....@...............@",
"%..............@%..............@%..............@%..............@",
"...............@...............@.....@+........@...............@",
"...............@...............@....@$.%.......@...............@",
"...............@...............@....+.#%.......@...............@",
"...............@...............@.....%%........@...............@",
"...............@...............@...............@...............@",
"...............@...............@...............@...............@",
"...............@...............@...............@...............@",
"...............@...............@...............@...............@",
"...............@...............@...............@...............@",
".+......+......@.+......+......@.+......+......@.+......+......@",
"+..............@+..............@+..............@+..............@",
"...#+......#+..@...#+......#+..@...#+......#+..@...#+......#+..@",
"+.@++..+..@++..@+.@++..+..@++..@+.@++..+..@++..@+.@++..+..@++..@",
"..@@......@@...@..@@......@@...@..@@......@@...@..@@......@@...@",
"...............@...............@...............@...............@",
"&@&&&&@&@@@@@@@@&@&&&&@&@@@@@@@@&@&&&&@&@@@@@@@@&@&&&&@&@@@@@@@@",
"****************************************************************"};
