/* XPM */
static char * 01_xpm[] = {
"125 125 61 1",
" 	c None",
".	c #022921",
"+	c #10592F",
"@	c #054227",
"#	c #003420",
"$	c #316A21",
"%	c #497C12",
"&	c #909290",
"*	c #B1B1AE",
"=	c #CBCDC9",
"-	c #6C6C6D",
";	c #989A97",
">	c #C9C7C4",
",	c #BCBDBA",
"'	c #A3A39A",
")	c #4D5A4E",
"!	c #481C1A",
"~	c #454976",
"{	c #78616D",
"]	c #938CAC",
"^	c #635E91",
"/	c #837BA2",
"(	c #A99FAF",
"_	c #736B9B",
":	c #7B77A7",
"<	c #554662",
"[	c #A39CB7",
"}	c #897A93",
"|	c #6A5C79",
"1	c #2E2B3E",
"2	c #1E1821",
"3	c #282F54",
"4	c #291728",
"5	c #676880",
"6	c #0C0B12",
"7	c #3D293B",
"8	c #828481",
"9	c #15172B",
"0	c #47485E",
"a	c #31292F",
"b	c #55474E",
"c	c #65544F",
"d	c #2E2954",
"e	c #796A88",
"f	c #B9AEBE",
"g	c #B2ADC7",
"h	c #C9BFC9",
"i	c #9A8492",
"j	c #B398A2",
"k	c #EDE4D2",
"l	c #C3BED2",
"m	c #E6CFCA",
"n	c #E8CBCC",
"o	c #E7E5E4",
"p	c #D8B9BA",
"q	c #F8F4E2",
"r	c #9E8483",
"s	c #D6D1DC",
"t	c #BDADA8",
"u	c #F6F5F1",
"v	c #1C1D16",
"..++++++@@@@#####..@@$$$$##......####......####++++++.....@@@@@@......######@@@@++++++@@@@$$$$..@++++++......@@@@@@....$$$$..",
"..++++++@@@@#####..@@$$$$##......####......####++++++.....@@@@@@......######@@@@++++++@@@@$$$$..@++++++......@@@@@@....$$$$..",
"$$$$$$@@@@+++++......@@@@##++++++@@@@++++++@@$$$$$$#####....@@@@++++++..####@@@@..$$$$$$@@......$$$$$@@##......@@@@@@##..@@@@",
"$$$$$$@@@@+++++......@@@@##++++++@@@@++++++@@$$$$$$#####....@@@@++++++..####@@@@..$$$$$$@@......$$$$$@@##......@@@@@@##..@@@@",
"$$$$@@@@..##$$$$$........$$$$$$@@@@$$$$$$##$$$$$$#####........$$$$$$......####......$$$$##......$$$@@@@....++++++@@@@##@@@@@@",
"$$$$@@@@..##$$$$$........$$$$$$@@@@$$$$$$##$$$$$$#####........$$$$$$......####......$$$$##......$$$@@@@....++++++@@@@##@@@@@@",
"..######.....$$$$$$....$$$$$$##@@@@$$$$####%%$$@@@@##.......##$$$$@@@@@@++++++......@@@@@@......#####........$$$$$$..++++++..",
"..######.....$$$$$$....$$$$$$##@@@@$$$$####%%$$@@@@##.......##$$$$@@@@@@++++++......@@@@@@......#####........$$$$$$..++++++..",
"@@@@++++++..@@@$$%%....%%$$##............####..@@@@...++++++####....@@$$$$$$######....@@@@@@..+++++@@......@@@@$$$$$$@@$$$$$$",
"@@@@++++++..@@@$$%%....%%$$##............####..@@@@...++++++####....@@$$$$$$######....@@@@@@..+++++@@......@@@@$$$$$$@@$$$$$$",
"$$@@@@$$$$$$@@@##$$##..####......++++++@@@@@@........@@@$$$$$$..####$$$$$$@@..##++++++..@@@@$$$$$@@@@@@......@@@@$$%%....$$$$",
"$$@@@@$$$$$$@@@##$$##..####......++++++@@@@@@.&*=============================*-#++++++..@@@@$$$$$@@@@@@......@@@@$$%%....$$$$",
"%%..@@@@$$$$$....####..++++++....##$$$$$$;========>===============================,$$$$$..@@$$$$...++++++......@@@@##..@@@@$$",
"..........$$%....@@@@@@++++@@@@####@@$'===========,=================>>==============,,$$######...####$$$$$$......##++++++@@##",
"..........$$%....@@@@@@++++@@@@####@>>,,==========,>========>=======,,==============,,==)#####...####$$$$$$......##++++++@@##",
"++++........$..@@@@@@######@@@@@@#>===,,====>=====,,========,======>========>,,=====,,====&#+++++####..$$$$@@@@@@$$$$$$@@##++",
"++++........$..@@@@@@######@@@@@&=====,,===,,>===>,,=====,====,,,==========,,,,=====,>======+++++####..$$$$@@@@@@$$$$$$@@##++",
"$$$$$$@@.....@@@@@@##++++++..@@=======,,==,,,======>,===,,==>>>>>=========>,,>======,========*+++@@......@@@@@@..$$$$........",
"$$$$$$@@.....@@@@@@##++++++..)========,,=>,,>========>,;;;,,,,,,,,*,,,,========================++@@......@@@@@@..$$$$........",
"..$$$$@@@@###@@@@..$$$$$$@@..=========>,=>,>=======,,,;*,,,,,,,,,;;*,,,,,>=====================>@++++++@@@@++++++####........",
"..$$$$@@@@###@@@@..$$$$$$@@'===========,========,,,,,,,*;;;*,,,,,,,;,,,,,,,,>========>>,,,,======++++++@@@@++++++####........",
"####..@@+++++##....$$$$@@!~============,======,,,,,,,**,,,,,,,,,,;;,,,,,,,,,,,,=======>>,,,,>=====$$$..@@@@..$$$$$$..@@@@@@##",
"####..@@+++++##....$$$$@@&=====,,,,>>==,====,,*;;*,,,,,,,,,,,,,,,,,,,,,,**';;,,,,===========>,=====$$..@@@@..$$$$$$..@@@@@@##",
"++####$$$$$$###..@@@@@@!{=====,========>==,,,,*;;;,,,,,]^^^^^^^^^^^^/,,,,,,,'';,,,>============,===>#!!!!..####$$$$$$@@@@++++",
"++####$$$$$$###..@@@@@@!====>>==========,,,,,,,';,,(^^^^^^^^^^^^^^^^^^^^],,,,,,,,,,,================;!!!!..####$$$$$$@@@@++++",
"..##$$$$$$.......@@!!!!================,,*;,,,,,,^^^^_^^^^^^^^^^^^^^^^^^^^^],,,,,,,;*,========>======*!!!..####..$$%%@@$$$$$$",
"..##$$$$$$.......@@!!!,==============>,;;*,,,,*^^^^________^^^^^___________^^:,,,,,,;;*========,======!!!..####..$$%%@@$$$$$$",
"@@@@%%$$.....++++++!!!====>=========,,;;*,,,,<<^^^__________________________^^^[,,,,,*;;========,=====*$$$$......@@@@..$$$$..",
"@@@@%%$$.....++++++!!=====,========,*;;*,,,}|<^^^^___________________________^^^_,,,,,;;;*======,,====='$$$......@@@@..$$$$..",
"##@@$$@@.......$$$$$+=====,=======,*;;,,,*1_^^^^^^^_______________________________],,,,,;;*======,======$$$$$............####",
"##@@$$@@.......$$$$$======,======,*;;,,,-~~^^^^^^^^____________________://///_______,,,,,';>======,====='$$$$............####",
"....@@@@#####....$$$======,=====>,;',,,|~22233242^^____________________////:::_______*,,,,*;=======>=====$$%%....++++++@@@@##",
"....@@@@#####....$$=======>=====,;;,,,562627~^^___^^______////_///__:::::////::__:____,,,,,;;============8$%%....++++++@@@@##",
"......######.@@@@@@=,=====>====,*;,,,1920124a222^______////////_:///::::::////////:_:__*,,,,;*===========,.$$####..$$$$$$@@@@",
"......######.@@@@@)=,==========,;;,,*1225/^11499<^^_______//////////:::::://////////////,,,,;;===========,.$$####..$$$$$$@@@@",
"..++++++##.....@@@==,=========,,;,,,62~1b2^^^<_^/^____________////////://///////////////(,,,,;,==========,c..######..$$$$@@@@",
"..++++++##.....@@@==,========,,',,,^^921422244222|____::::::::::::///////////////////////],,,,;==========,>..######..$$$$@@@@",
"$$$$$$@@@@@@+++++@==,========,,*,,a621|0<^^:_0927<___://///////::::///////////////////////*,,,,,=========,=++++++@@@@@@......",
"$$$$$$@@@@@@+++++&==,=======,,,,,*66601<7~^~^_~<|__:/:://///////]/////////////////////]]]//,,,,,=========,=++++++@@@@@@......",
"$$$$@@@@@@$$$$$..===,======>,,,,,6d3~~1~2a^^__::::::///////////]]]]///////////]]]]]]]]]]]]]],,;*,========,=$$$$..##@@@@@@####",
"$$$$@@@@@@$$$$$..===,======,,,,,-669641247~<~_::_:::://///////]]]]]]]]//////]]]]]]]]]]]]]]]],,,,;,>======,='$$$..##@@@@@@####",
"..@@@@@@$$$$$..##===,=,,,,,;;;'*6699066519662b:::::::////////]]]]]]]]]]]]]]]]]]]]]]]]]]]]]]]],,,,,==>====,=,$........@@@@@@##",
"..@@@@@@$$$$$..##===,======,,,,-626962215666{4:::::://////]]]]]]]]]]]]]]]]]]]]]]]]]]]]]]]]]]],,,,,=======,==$........@@@@@@##",
"++@@@@##%%$$@@@@@===,=====,,*;,6669662a243926/:/]//////////]]]]]]]]]]][]]]]]]]]]]]]]]]]]]]]][],,;'=======,==.##++++++..@@++++",
"++@@@@##%%$$@@@@@===,=====,;;,'616~3~5a69<^:/121<<e////////]]]][[[[[]][[[]]]]]]]]]]]]]][[[[[[[,,,;*===>>=,==.##++++++..@@++++",
"....####..@@@++++===,====>,,,,2166d4d~^~^3^_^_:/]]/////]]]]]]]][[[[[[[[[[[[[[[[[]][[[[[[[[[[[[f,,,,=,=,,=,==.$$$$$$##..$$$$$$",
"....####..@@@++++===,====,,,,,<666d44~9220^^__:://////]]]]]]]]]][[[[[[[[[[[[[[[[[[[[[[[[[[(((((,,,,==,===>==.$$$$$$##..$$$$$$",
"##++++++..@@@##$$===>====,,,,f<62624421:_66^___:::::/]]][[[[[[[[[[[[[[[[[[[[[[[[[[((((((((((fff,,,,==,===>==$$$$$####$$$$$$##",
"##++++++..@@@##$$===>====,,,,-366662d4<:<:^|a|/:///:/]]][gg[[[[[[[[[[((((((((((((((fffffffffff*,,,,>=>>==>==$$$$$####$$$$$$##",
"@@@@$$$$$$#####..===>====,;,,67266442696<e|][0|_/////]][[[gfffg[[[[[((((fffff(fffffffffff*,,hhhh,,,,==,>====%$$@@@@@@%%$$..@@",
"@@@@$$$$$$#####..===>=,,=*;,,666666476672|e|/]]]]|e]/]][[[gfffffg[g(ggfffffffffffff**,,hhh>>>>>>,,,,==,,====%$$@@@@@@%%$$..@@",
"@@@@@@$$$$###....=====,>=;;,,266699666a144e//]/]]]5}[][[[ggffffffffgfffffffffffff,h,h>>>>>>>>>>>,,,,==>,==>=$@@@@@@..........",
"@@@@@@$$$$###....========;;,,66666331192222:!/]][|][[[[ggfffffffffffff(}ihhhhhhhhh>>>>>>>>>>>>>>,,,,===,==>=$@@@@@@..........",
"..@@@@@@.........==>====>';,;666661d_1~124|7^//]]][<ggggfffffffffffffji}ihhhhhhh>>>>>>>>====kkkk,,,,====>=>=@@@@@##++++++....",
"..++++++.....++++==>==>=>';,-1966~~d~~~~|//^|bb]/7][[ggggglfffffffffhiiiih>>>>>>>>>===mkkkkkkkkk,,,,====>=>=@@@..####$$$$$$..",
"..++++++.....++++==>==,=>*;,-46169946421_//47b|]]{e{[[gggggffffflhfhjjiiinn>>>m>>>=mokkkkkkkkkkk,,,,======>=@@@..####$$$$$$..",
"....$$$$$$##@@@$$==>==,=>*;,6446266622a6669277]]{<{i{ggggfffffflhhhhjjiiipmmmmm=mokkkkkkkkkqkkkk,,,,======>=.......@@@@$$$$$$",
"....$$$$$$##@@@$$==>==,=>*;,622666969^066666666a2bi{{ifgggffffffhhhhjrr{irmmmmmkkkkkkkkqqqqqqqqq,,,,======>=.......@@@@$$$$$$",
"......$$$$$$@@@..==>==,=>*;,2466666617^^/322222abiiii(gfffffffffhhhjjjr{ijmmmmkkkkkkkkqqqqqqqqqq,,,,======>=#++++++@@@@##$$%%",
"......$$$$$$@@@..==>==,=>*;,666669~1266<|///e0i22bfgggggfffflfhhhhhjrrr{ijmmmkkkkkkkqqqqqqqqqqqq,,,,======,=#++++++@@@@##$$%%",
"....####$$%%@..##==>==,=>*;,6666699992a521<][[(ig]f]gggffffffhhhhhhj{jrrirmkkkkkkkkkqqqqqqqqqqqq,,,,======,=@@@$$$$$$......$$",
"....####$$%%@..##==,==,=>*;,6169666966c}/20b0]glgggflfffflffhhhhhhhjjrjrjjkkkkkkkkkqqqqqqqqqqqqq,,,,==>===,=@@@$$$$$$......$$",
"++++####@@@@.++++==,==>=>*;,6~4966662210]]]/]][gg[[flffi{flhhnshhhijtjrrrjpkkkkkkqqqqqqqqqqqqqqq,,,,==>===,=.@@@@$$$$..@@@@@@",
"++++####@@@@.++++==,====>*;,666699966267</]]][[[[[[fff({{hljsmnlhhp{trjrjjtkkkkkqqqqqqqqqqqqqqqq,,,,==>===,=.@@@@$$$$..@@@@@@",
"$$$$$$......$$$$$==,====>*;*666269d3326a4{}[gglhfffffl{{bfhjnsjfhhpjrjrrjjtkkkkkqqqqqqqqqqquuuuu,,,,==>===,=+##@@@@..@@@@@@..",
"$$$$$$......$$$$$==,====>*;*62666661~~5a2a7b((gggfggffibbifjfffff>jjrrrrjjtkkkkkqqqqqqqqquuuuuuu,,*,==>===,=+##@@@@..@@@@@@..",
"..$$$$....$$$$$@@==,====>';,62666~705/[7ib[ll(bgggggg({bb{ijfff(fijjjrrrjttmkkkqqqqqqqqquuuuuuuu,,*,==>===,=.####..@@++++++..",
"..$$$$....$$$$$@@==,====>';,a1666~^<]gggg[g{ggggggggf({a{{{(fffffijjrrrrjttmkkkqqqqqqqquuuuuuuuu,,,,==>===>=.####..@@++++++..",
"##@@@@@@..%%$@@!!==>====>'',a06629664egggglab}gggggg({ba7{{ifffffirr{rrrjtttkkkqqqqqqquuuuuuuuuu,,,,=>>===>=@......$$$$$$..##",
"##@@@@@@..%%$@@!!==>===,>'',626<12927b}gggg(gl{fggggfb{a7{iifffffiircrrrjtttkkkqqqqqquuuuuuuuuuu,,,,=>>===>=@......$$$$$$..##",
"####@@@@@@$$#..!!==>==,=>;*,776a9924aabi[[[}7glssllli}{22l}{{fffl(icc{rjjttt>kkkqqqquuuuuuuuuuuu,,,,==,=====.....$$$$$$......",
"####@@@@@@$$#..!!=======>;*,27722966aab{]]]e7[[hllllf-i66fhsssfii(r)ccrjjttt>kkkqqquuuuuuuuuuuuu,,,,==,>====.....$$$$$$......",
"..++++++@@@@.@@@@=======>;*,26962244bb}[[g]|4[gsslllg(6a6ojlllggf;cccccrjjtt>kkkqkquuuuuuuuuuuuu,,,,===,====+..##%%$$..@@@@@@",
"..++++++@@@@.@@@@=======>;*,662a664aabbi[gg{b|glsllgf-262vhssoss,cbbrc8rtjtttmkkkkquuuuuuuuuuuuu,,,,========+..##%%$$..@@@@@@",
"@@..$$$$$$@@.++@@=======>;,,666696aaaaab]gg7b{4lllfgfb666a(fggfg]cbbcrcjrjftt>kkkkuuuuuuuuuuuuuu,,,,========...@@@@@@....@@@@",
"@@..$$$$$$@@.++@@=======>,,,66666d002b00[g]<7ab}gggg[66v-c(fg(-/6aab-c-i&jtttt>kkkuuuuuuuuuuuuuu,,,,========...@@@@@@....@@@@",
"@@....$$$$$$#####=======>,,,666610va0~622[]42a2{[[}[]a6605{[[bb26vvb(ri(i(((tt>okkouuuuuuuuuuuuu,,,,========.....@@@@@@++++++",
"@@....$$$$$$#####=======>,,,666621~3166466616227}[5][622a5ggbb626vb[ff(i((((fttmoooouuuuuuuuuuuu,,,;========.....@@@@@@++++++",
"..######$$%%.##@@=======>,,,76v112216964bb22<aaaa|]]0b6b6}][[}2666v-ill(((((fhtpmkooooouuuuuuuuu,,,;========...++++++@@..$$$$",
"..######$$%%.##@@====,>>*,,,776294922a262777<722b}7]066a0a]]}[}aa6ab}llh(((ffffppoooooooouuuuuuu,,,*>=======...++++++@@..$$$$",
"@@..##@@@@$$.@@@@=====,>>,,,66a26246b1022277<02a6bb/|66abl[]]eavv6-[(llh((((ouuukmmooooooouuuuuu,,,,,,======@$$$$$$..####@@$$",
"@@..##@@@@$$.@@@@=======>,,,6a666a266610^771102a22b/9666bl[]02a66a6v}gllf((((jjoqkmkuooooooooooo,,;,====>===@$$$$$$..####@@$$",
"++++@@@@@@..@@@@@=======>,,,66691~16v6611~<71322aba236aa8{][52aa66a}iflll((((j(jmkkkkkkooooooooo,,;,========@$$$$......@@@@@@",
"++++@@@@@@..@@@@@=======>,,,66299v~d~9666662~1a2662162b1bb}]/666a{6v{flll(((((ijjmmmmmkom=oouuoo,**,========@$$$$......@@@@@@",
"$$$$$$@@....+++++=======>,,,429262461~~~6622022222017aa20b{/5a226a(g}glfff((((i(jjmmmmmm=ooooooo,*,,========@@@@@....@@@@@@##",
"$$$$$$@@....+++++=======>,*,42266aa22131~222111a67a6661b|{|/0b27b-}}[[[ffffi((i(jjjmmm>>===>ooo=,*,,========@@@@@....@@@@@@##",
"##$$$$..##$$$$$..=======>,*,6666111662936~~1236222662ab|||e/<66v666}i}[[(((((i}iiiip>>>>>>===>om,',,========.@@@@++++++@@..##",
"##$$$$..##$$$$$..=======>,*,266~0^~~9626931126222a2500<|||e_226ba22}eeee]]]}i}}}iiii>>>m>=mm>>>>,;,,========.@@@@++++++@@..##",
"..@@@@@@$$$$$..##=,,>===>,',266396~^^~16162119~222170|_eeee<424a47beeeeee]]i[]}}}iiif>>>>r>o>mt>,',,=====>,,+++..##$$$$$$....",
"..@@@@@@$$$$$..##=>>====>,*,16a963~^^^_|9293~0~~02777||eee|b7422<70|eee}e]]e}]}}}}}iih>>>rrmmmm>,,,,======>>+++..##$$$$$$....",
"....@@@@%%$$.##@@=======>,*,2292261~^^^^^<1~~^~~^0<<<<|||e<7777|e<<||e|ee]}eee]ee}}}ijhthiir>>>t,,,,========$......##$$$$@@..",
"....@@@@%%$$.##@@=======>,,,96666221^^^9^~0~^^010:]//|||ee<<<<<</<<<|/|||]}}}|]}ee}}}ihffiiirhtr,,,,========$......##$$$$@@..",
"++++##@@@@@@.@@@@=======>*;,266666629~^:^^_|1~~00/[g[<|<]<<<7<<<_]||||eee//]]e|eeeeee}jiiiiiiifi,,,*>=======.......@@@@@@##++",
"++++##@@@@@@.@@@@=======>,,,966666a2661<^^~^_50700<[ggg[[[[<7d7<7:|e||ee//}[]||||eeee}(iii}iii(i,,,*========.......@@@@@@##++",
"$$......+++++....=======>,,,6606666669920~~34[gg|<<<]gggggggg|7<e}eeeee//}]}/]|ell]eee}}]i}}}i((,,,,========.######....##$$$$",
"$$......+++++....=======>,,,6699666616611~~<<1<glgg]}|ggggggllgge][||eee]}]ee|e|flhh}}e]}}}}}ii},,,,========.######....##$$$$",
"....@@$$$$$$###..=====>=>,*,663~666666244<<||<<<7[ellllgglllsssshl[}ll]}]}[}||e|]ffssss}ee{{uouu,,,,==>>====+..####@@@@$$$$$$",
"......$$$$@@###$$====>,=>,;,6666^:3222691<<<|<<<|</7[llssssooosssoooooooossos|e||gf>sooooouuoooo,,,,===,>===.....@@@@@@%%$$..",
"......$$$$@@###$$====>,=>*;,[[[[4:<ggs441|<<<|<|||5}<[[ssssoooo(ssoooooouuuuuuuoooooooooooouuooo,,,,==>,,===.....@@@@@@%%$$..",
"######..@@@@@$$$$=======>,',^/ggggllgllsl]<<<<<<|55}<|<}sssooooooosoooooooooouuuooooooooooooohss,,,,========+++++@@@@##......",
"######..@@@@@$$$$=======>,,,619/]ggllllllssse|||e<<|<<<<<]lllssoouoossssssoooooooooooooo=oj{77<<,,,,========+++++@@@@##......",
"@@++++++..@@@$$$$=======>,,,620|55]egg[}[[gll}}5e||||<||||}|ffflsouuuoosssoosoooooooooommi]|<<<<,,,,========.$$$$$$......@@@@",
"@@++++++..@@@$$$$=====,,,;;,26611}}}}]llsllllll|}ee|||||ee|e||(ffhooouooououu!jsooouoooo{ie|<||<,,,,========.$$$$$$......@@@@",
"....$$$$$$.......=====,,,;&,244427}]]]]glsssllf]]|e_|_|<||e|_|<<fsssssoooouuuuuuuuuuuuoos7<<</e<,,,,==>=====.##$$$$$$..++++++",
"....$$$$$$.......=======>,,,4477447}(gg[gfhssooooss(7|}(soo=oooooooosshssoouuuuuuuuuuuuuuuouuuuu,,,,==>=====.##$$$$$$..++++++",
"$$..@@$$$$$$.....=======>,,,4ahlssss([gggllglllssssoooos(hhsssoooosshhhhhhhssouuuuuuuuuuuuuuuuuu,,,,==>=====@@@@@$$%%@@@@$$$$",
"$$..@@$$$$$$.....=======>,,,(lgllisssssh7i<{}((ifllsssooooof[ffffllllhi{flffhlhsssoooouuuooouuuu,,,,==>=====@@@@@$$%%@@@@$$$$",
"$$....@@$$%%.++++=======>,,,osssssooooooooossssslllsshsssssooooooh(}o;osossh(bshhsshhhhooooooooo,,,,==>=====#@@@@@@##@@@@..$$",
"$$....@@$$%%.++++=======>,,,hsshssssooooooooooosssss}lgflsssssssssssssss(hs=oomosssshhhhlhfsffoo,*,,=>>=====#@@@@@@##@@@@..$$",
"........@@@@#@@$$=======>,*,msslllfllllsssssssssssssooosssssllllsssllllfhllhhllfhsssflfll((l(llf,,*,=>>=====+..@@++++++......",
"........@@@@#@@$$====>==>,;,lf5o&=hhg[[glllllflssllllsssssssllllllssshfs(sh7747[gllgfhhhhhllhhhh,,;,=>>=====+..@@++++++......",
"++++++....###@@@@====,==>,;,](ooooossl}}shssl[gle|[[}llllsg}]llsf<e[llsl}(hsssssssslhslfffflllll,,;,=>>=====###$$$$$$........",
"++++++....###@@@@====,==>,;,mmoosf{hsssshhs]g(isslsg]}[]lssssl}glssssssssssssssslssssssll[llllff,,;,=>>=====###$$$$$$........",
"$$$$..)))))))))))====,==>,;,cccccccccccccccccccbbcccccbbbbbbccccccccbbbbccccccbbbbbbcccccccccccc,,;,=>>==,,=))))))))))@@@++++",
"$$$$..&;;;;;;;;;;;;;;;;;;;;;;;;&888888888888888888888888888888888888888888888888888888888888&;;;;;;;;;;;;&&;;;;;;;;;;;@@@++++",
"$$....;;&&&;;;;;;;;;;****;;;;;;;;;;&8&88888888888888888888--88888888888888888888888888&;;;;;;;;;;;;;;;;;;&&;;;;;;;;;;;.$$$$$$",
"$$....;;;;;;;;;;;;;;;*****;;;;;;;;;&&&;;;;;;&&888888-88888--88888888888888888&&;;&;;;;&&&&;;;;;;;;;;;;;;;&&;;;;;;;;;;;.$$$$$$",
"@@....;;;;;;;;;;;;;;;*****;;;;;;;;;&&&&;;;;;;;;;;;&&&;;;;;&;;;;;;;;;;;;;;;;;;;;;&&;;;;&&&&;;;;;&&&;;;;;;;&&;;;;;;;;;;;@$$$$@@",
"@@....;;;;;;;;;;;;;;;****;;;&;;;;;&&&;&&;;;;;;;;;&&&;;;;;;;;;;;;;*;;;;;;;;;;';;;;&;;;;;;;;;;;;;;;;;&;;;;;&&;;;;;;;*;;;@$$$$@@",
"@@..##;;;;;;;;;;;;;;;;**;;;&;;;;;;&&;;;;;;,;;;;;&&;;;;;;;;;;;;;;*,,,;;;;;;;;,;;;;&;;;;;;;;;;&;;;;;;;;;;;;&&;,,,;;;,;;;@@@..@@",
"@@..##;;;;;;;;;;;;;;;;;;&&&;;;;;;&;;;;;;;;,;;;;&&;;;;;;;;;;;;;;;;;,,,*;;;;;;,;;;&&&;;;;;&&&;;;;;;,,;;;;;;&&;;,,,;;,,;;@@@..@@",
"..####;;;;;;&;;;;;;;;;;;;;;;;;;;;;;;;;;;;,*;;;;;;;;;;&&&&;;;;;;;;;;;;;;;;;;;,;;;&;;;;;&&&;;;;;;;;;,*;;;;;&&;;;*;;;,,;;+++....",
"..####;;;;&&;;;;;;&;;;;;;;;;;;;;;;;;;;;;*;;;;;;;;;;;;;;;;;;;;;;;;;;;;;;;;;;;,;;;;;;;;&;;;;;;;;;;;;;;;;;;;&&;;;;;;;,,,;+++....",
"..####;;&&&;;;;;;;&;;;;;;;;;;;;;;;;;;;;;;;;;;;;;;;;;;;;;;;;;;;;;;;;;;;;;;;;;,;;;;;;;;;;;;;;;;;;;;;;;;;;;;&&;;;;;;;;;;*$$$$$..",
"..####;;&&;;;;;;;;&;;;;;;;;;;;;;;;;;;;;;;;;;;;;;;;;;;;;;;;;;;;;;;;;;;;;;;;;;,;;;;;;;;;;;;;;;;;;;;;;;;;;;;&;;;;;;;;;;;;$$$$$.."};
