/* XPM */
static char * door01_xpm[] = {
"64 64 32 1",
" 	c None",
".	c #002922",
"+	c #16582E",
"@	c #094227",
"#	c #003422",
"$	c #316A1F",
"%	c #4C7C11",
"&	c #4D1C1A",
"*	c #3C1313",
"=	c #451816",
"-	c #2E0E0F",
";	c #3B2921",
">	c #000000",
",	c #612723",
"'	c #4D1F1D",
")	c #2E221C",
"!	c #58221F",
"~	c #74362A",
"{	c #200707",
"]	c #463124",
"^	c #5B231E",
"/	c #491C19",
"(	c #3B1D1D",
"_	c #68312E",
":	c #2C0F0A",
"<	c #7E3C34",
"[	c #331512",
"}	c #3E1A15",
"|	c #844241",
"1	c #693433",
"2	c #170606",
"3	c #713633",
".+++@@###.@$$#...##...##+++...@@@...###@@+++@@$$.@+++...@@@..$$.",
"$$$@@+++...@@#+++@@+++@$$$###..@@+++.##@@.$$$@...$$$@#...@@@#.@@",
"$$@@.#$$$....$$$@@$$$#$$$###....$$$...##...$$#...$$@@..+++@@#@@@",
".###...$$$..$$$#@@$$##%$@@#....#$$@@@+++...@@@...###....$$$.+++.",
"@@+++.@@$%..%$#......##.@@..+++##..@$$$###..@@@.+++@...@@$$$@$$$",
"$@@$$$@@#$#.##...+++@@@....@@$$$.##$$$@.#+++.@@$$$@@@...@@$%..$$",
"%.@@$$$..##.+++..#$$$@.#+++@@.$$$@@%$@@.@@$$$.@$$..+++...@@#.@@$",
".....$%..@@@++@@##@$$@.$$$@@...$%@.##..+@@@$$###..##$$$...#+++@#",
"++....$.@@@###@@@#@@.##$$###...@@+++..+++#@@..#+++##.$$@@@$$$@#+",
"$$$@...@@@#+++.@@.+++##...#+++..$$$#&*$+@&#+++.#++@...@@@.$$....",
".$$@@##@@.$$$@.&=&#$$$*-;*$$$#&&%$@=*>>,&'&@$$$&=@+++@@+++##....",
"##.@+++#..$$@&&=&==@$%*-)*$$@&&&!*=&---~'&&&@$$=&$$$.@@.$$$.@@@#",
"+##$$$##.@@@&=&=&&&&&&&{;*=&&&!**=&&&,~&&&&&&=&=&$$#&&.##$$$@@++",
".#$$$....@&&&&&&&&&&&&={;=&&&&****=&&&&&&=&&&&&&&&&&&&.##.$%@$$$",
"@@%$...+++***&&&&&**&&*{;=**&=----**&&=*&=***&&&&&**&$$...@@.$$.",
"#@$@....$$${{-{------{{;]){{{{{-{----{{{>>{{{-{------$$$......##",
"..@@###..$$));;);;)););]]]);)););;);)))))););;);))));@$%..+++@@#",
"...###.@@@^^'''*-);)&,','~~,~,,,/***==;]]~,,,,*-**===*.$##.$$$@@",
".+++#...@@@,'&'&'-(*,'&&&&'&&&&^,&*==&{;_'&&&&&*-&*=&&=.###.$$@@",
"$$$@@@+++@@'&'&''&,~&&&&&&&&&'^&&&&=&={],&&^&&&=**>-,=@+++@@@...",
"$$@@@$$$.#&&'&&&&&&&&&&&&&&&,,&&&&&&=={;,&^&&&&&*-->~&$$$.#@@@##",
".@@@$$$.##&&&&&&&&&&&&&*&&&^&&&&&&&=&=-),^'&&&&=&=-,=&$$....@@@#",
"+@@#%$@@@&&&&&=&&&&&&&&=-&^'&&&&&&&&=*{;~'&'&&&&=*&&&&&.#+++.@++",
"..##.@@+++&=&=&&&&=&&&*>>,'&&&&&&&&!**-),&'&&&&&&*&=&&&.$$$#.$$$",
"#+++.@@#$$$&--=&==&=&&=--,'&&'&'&&&!*&-)^''&&&&&==*&&&@$$$##$$$#",
"@@$$$###.$$$>>!*=&&&&&&,~&&&'''&&&&*=*-;&&&&&&&&=&&=&@#%$@@@%$.@",
"@@@$$##..#$%>-~&*&&&&&&&&&&&''&&&&&**&-)*&&&&&&=&&&&@#.$@@@.....",
".@@@......{>-,&=&=&&!&&&&&&''&'&&&&*&*-;*&&,&&&&=&&&+..@@@#+++..",
".+++...+++::{<&&&&&!=&&&&&'&'&&=&&*=&=-;,'&&&&&&&&&&$$.@@.##$$$.",
"..$$$#@@$$$:[{,&&&!=&==&&=&&&&*&&=*&=&{;=&&&&&&&&&&&$$$....@@$$$",
"...$$$@@.$$[}-!&&!**==-&&*=&**&&&=*==*{;*=&***&&&&&&=$%#+++@@#$%",
"..##$%@.##}:::{-----{-{{>{{-{------{{>)];{-{-------{{@$@@$$$...$",
"++##@@.+++;;);););;;;;);))));;;;;)););)]]]]];];)))););..@@$$.@@@",
"$$$...$$$@^]]];];;=__^&=*);)|1~~^^^^^&=&,,,'^^^^^^^&=+++#@@.@@@.",
".$$..$$$@&'__^^____'&&=&={)<'&&&^'&&''&=&&&&&&!'&&&'$$$.##.@+++.",
"#@@@.%$@&''&&&^''''&&&&=&-;,&&&^'&&''&&&&&&&&!'&&&'$$$@@...$$$.#",
"##@@@$#.'&'&&^'&'&&&&&&&&{),&&,&&'''&&&*&&&&!&&&'''%$@@...$$$...",
".+++@@.@@&&&,&&'&&&&&&&&={),&',&'&'&&&&&&&&,!!''''&&@+++.#%$.@@@",
"@.$$$@.+@&&',&'&&&&&&&!*-{),&^&&&'&&&&*&&&,===&&'&'@$$$..@@@..@@",
"@..$$$###&&'&'&'&&&&&&**--),^&&&'&&=&=&&,!=&=&='&&&=$$....@@@+++",
".###$%.#@@&''&'&&&&&&!**-{)/,&&&&&&*&&&'==&=&=&&&&&&&....+++@.$$",
"@.#@@$.@@@&'&''&&=&&!*=*--;/&&&&&&**&&'&&&=&&&&&&&&&&=-@$$$.##@$",
"++@@@.@@@&&&&&&&===&*=&=*-)*&&&&&!*=&=&&&*&=&&&&&&&&==-@$$...@@@",
"$$$@..+++&&&&&&=&=&==&&&*-;**&&&&*=&=&&&=&&&&&&&&&&***-@@@..@@@#",
"#$$.#$$$..&&&==&=&=&&&&&&{)*=&&&*&=&&&&&&*==&=&!***=&={.@@+++@.#",
".@@@$$$.###&&&&=&&&&&&&&={;=&&!**&&&&&&&&==&=&=*=*&&==+++.#$$$..",
"..@@%$.#@@@**&&&&&&&**&&*{;=****=&**=&&*&=&===*&*&*=&$$$...#$$@.",
"++#@@@.@@@>{{{>{{->>{--{{)];{{{-----{-{{>{{{{-{-----{$$....@@@#+",
"$...+++....););;;;);)););;]];;];];;;;;);;;;;;;;;;))))...###..#$$",
"..@$$$##.+++|<<_,,//*)))~___,,,,=)//***==]]];;;;;;;);+++.##@@$$$",
"...$$@##$$$@^^^&&^,&&*,~///&'&&=-^,&&*=&*{];|~__,__,$$$...@@@%$.",
"###.@@@$$$@^&^&'^&&&&//=&=&&&&&-<&&&&&&&*{;~&&,'&''$$$@+++@@#...",
"@+++.@@$$#)&^&,,&&&&&&&&==&&&=,-^&&&&&&!*{],&,&&'&&%$@..$$$...@@",
"..$$$....-)^&^&&&&&&&&&=&=*&&^={'&&&&&&*--;,&&&&&&&$@...#$$$.+++",
"$.@$$$....)&^'&&&&&&&&=&=*&&&=-<&'&&&&!-*{;*&&&&&&&&&..@@@$%@@$$",
"$..@$%.+++)^'&&&&&&&&&&!&&*=&&-,&&&&&&**=-;-*=&=&&&&=&.#@@@#@@.$",
"....@@#@$$$^'&&'&'&&&&&&&=&*&=-,&&&&&=&&&-)*-**&=&==&+++.@+++...",
"+++..##@@$$^&&'''&&&&&!&===*&-{^&&&&!&&&&-;*=&&***=&$$$##$$$....",
"$$....##.-)^&&''&&&&&&!=*==&-22'&&&**==&*-)=&&&&&&*&%$..$$$.@@++",
"$....+++.#;^&''&'&&&&&=*&&&={22{&=**=&&&*-)=&&&&&=&=&&#@%$##.$$$",
"@..#$$$.##;^''&'&&&&&=*&*&&-<'&-&&&&&=&&={)*&=&&&&&&&!=@..@@@$$@",
"@.#$$$.###]&'&'&&=&&&*&=&--3'&&&-=&&=&&&&-)*=&=&&&&&!#@++..@@@.@",
".##%$..##+++&&&&*&&&=*=-{{^=&&&&*-&&&&&&&{)**=&=&&&!*#+$$$#+++..",
".##$.....@$$$-{--{-{{{>{{{>{{-{----2--{{>))){{{-{---#@+@$$##$$$."};
