/* XPM */
static char * door_test_xpm[] = {
"64 64 119 2",
"  	c None",
". 	c #002922",
"+ 	c #16582E",
"@ 	c #094227",
"# 	c #003422",
"$ 	c #316A1F",
"% 	c #4C7C11",
"& 	c #CCCCCC",
"* 	c #BFBEBE",
"= 	c #CACACA",
"- 	c #BCBBBB",
"; 	c #C9C9C9",
"> 	c #C1C1C1",
", 	c #C6C6C6",
"' 	c #C0BFBF",
") 	c #C2C2C2",
"! 	c #C6C5C5",
"~ 	c #BDBCBC",
"{ 	c #C8C8C8",
"] 	c #BCBCBC",
"^ 	c #9E9E9E",
"/ 	c #A4A4A4",
"( 	c #BABABA",
"_ 	c #ABABAB",
": 	c #A2A2A2",
"< 	c #BDBDBD",
"[ 	c #C4C4C4",
"} 	c #A0A0A0",
"| 	c #B5B5B5",
"1 	c #ADADAD",
"2 	c #907763",
"3 	c #754D2D",
"4 	c #000000",
"5 	c #B3AEAA",
"6 	c #C3C2C2",
"7 	c #C6C7C6",
"8 	c #CBCBCB",
"9 	c #9D8B7D",
"0 	c #979492",
"a 	c #865D36",
"b 	c #815833",
"c 	c #8C6239",
"d 	c #885E37",
"e 	c #856E5C",
"f 	c #999999",
"g 	c #A7A7A7",
"h 	c #BFBFBF",
"i 	c #795436",
"j 	c #7B5230",
"k 	c #A19286",
"l 	c #A1A1A1",
"m 	c #895F38",
"n 	c #877363",
"o 	c #F9F9F9",
"p 	c #B9B9B9",
"q 	c #AFA7A1",
"r 	c #B1B1B1",
"s 	c #764E2E",
"t 	c #B3B3B3",
"u 	c #C4C3C3",
"v 	c #826248",
"w 	c #836A56",
"x 	c #B8B5B3",
"y 	c #C5C4C4",
"z 	c #89786A",
"A 	c #8B6138",
"B 	c #7E6048",
"C 	c #FFFFFF",
"D 	c #775234",
"E 	c #C7C7C7",
"F 	c #825934",
"G 	c #C3C3C3",
"H 	c #C0C0C0",
"I 	c #835A35",
"J 	c #7E5532",
"K 	c #7F5632",
"L 	c #AAA098",
"M 	c #876951",
"N 	c #907357",
"O 	c #424242",
"P 	c #4D4D4D",
"Q 	c #845F3C",
"R 	c #5D5248",
"S 	c #949494",
"T 	c #555555",
"U 	c #FCFCFC",
"V 	c #DCDCDC",
"W 	c #757575",
"X 	c #CAC9C9",
"Y 	c #6D6D6D",
"Z 	c #ACACAC",
"` 	c #5D5D5D",
" .	c #858585",
"..	c #B6B6B6",
"+.	c #444444",
"@.	c #4B4B4B",
"#.	c #79512F",
"$.	c #7C5431",
"%.	c #A9A9A9",
"&.	c #855B35",
"*.	c #78502F",
"=.	c #A6A6A6",
"-.	c #916A4B",
";.	c #F2F2F2",
">.	c #656565",
",.	c #ECECEC",
"'.	c #E2E2E2",
").	c #CFCFCF",
"!.	c #7D7D7D",
"~.	c #464646",
"{.	c #8C8C8C",
"].	c #DFDFDF",
"^.	c #93816F",
"/.	c #80593B",
"(.	c #968B81",
"_.	c #8C633B",
":.	c #815936",
"<.	c #8E6541",
"[.	c #795132",
". + + + @ @ # # # . @ $ $ # . . . # # . . . # # + + + . . . @ @ @ . . . # # # @ @ + + + @ @ $ $ . @ + + + . . . @ @ @ . . $ $ . ",
"$ $ $ @ @ + + + . . . @ @ # + + + @ @ + + + @ $ $ $ # # # . . @ @ + + + . # # @ @ . $ $ $ @ . . . $ $ $ @ # . . . @ @ @ # . @ @ ",
"$ $ @ @ . # $ $ $ . . . . $ $ $ @ @ $ $ $ # $ $ $ # # # . . . . $ $ $ . . . # # . . . $ $ # . . . $ $ @ @ . . + + + @ @ # @ @ @ ",
". # # # . . . $ $ $ . . $ $ $ # @ @ $ $ # # % $ @ @ # . . . . # $ $ @ @ @ + + + . . . @ @ @ . . . # # # . . . . $ $ $ . + + + . ",
"@ @ + + + . @ @ $ % . . % $ # . . . . . . # # . @ @ . . + + + # # . . @ $ $ $ # # # . . @ @ @ . + + + @ . . . @ @ $ $ $ @ $ $ $ ",
"$ @ @ $ $ $ @ @ # $ # . # # . . . + & & & & & & & * & & & & & = & & & & * & & & & & & & & & - $ $ $ @ @ @ . . . @ @ $ % . . $ $ ",
"% . @ @ $ $ $ . . # # . + + + . & & - & & & & & & * ; & & & & > & & & , & & & & & * * & & & ' & & . . + + + . . . @ @ # . @ @ $ ",
". . . . . $ % . . @ @ @ + + & & & & - & & * & & & ) * & & * & & ; ; ! & & & & & * * & & & & & & & & & # $ $ $ . . . # + + + @ # ",
"+ + . . . . $ . @ @ @ # # & & & & & ~ & * > & & & & { ] ^ / ] ] ] ] ( ] ] ] = & & & & & & & & & & & & & . $ $ @ @ @ $ $ $ @ # + ",
"$ $ $ @ . . . @ @ @ # + & & & & & & & & & & & & ] ] ] ] ( ^ _ ] ] ] ] : ] ] ] ] < & & & & & ; [ - { & & & . @ @ @ . $ $ . . . . ",
". $ $ @ @ # # @ @ . $ & & & ' ; & & & & & & ] ^ ^ ] ] ] ] ] ] ] ] ] } ] ] ] | 1 1 ] ] & & & & & & = - & & & @ + + + # # . . . . ",
"# # . @ + + + # . . & & & - & & & & & & ] ] ] ^ ^ ] ] 2 3 3 3 3 4 3 3 3 3 5 ] ] ] ^ ( ] ] & & & & & & & 6 & & . $ $ $ . @ @ @ # ",
"+ # # $ $ $ # # . 7 & = & & & & & & 8 ] / ] ] ] 9 3 3 3 0 0 a b 4 c d e f 3 3 3 ] ] ] ] ] g 8 & & & & & & & & & # $ $ $ @ @ + + ",
". # $ $ $ . . . . & & * & & & & & h ^ ^ ] ] i 3 3 f 3 j c c c a 4 c c c c c 3 f 3 3 k ] ] ] ^ l & & & & * & & & # . $ % @ $ $ $ ",
"@ @ % $ . . . + & & & * & & & & < ^ ^ ] ] 3 3 3 b c 3 j c c c c 4 c c c c c 3 c m 3 3 3 ] ] ] ^ ^ & & & & * & & & . @ @ . $ $ . ",
"# @ $ @ . . . . & & & * & & & h ^ ( ] 2 3 n o c c c 3 j c c c c 4 c c c c c 3 c c c p f 3 q ] ] r ^ & & & 8 & & & . . . . . # # ",
". . @ @ # # # & & & & * & & 8 } ] ] i 3 3 3 c c c c 3 j c s c c 4 c c c 3 c 3 c c c c 3 3 3 2 ] ] t | & & & & & & . + + + @ @ # ",
". . . # # # . & & & & u & & ] ^ ] v 0 0 c 3 c c c c 3 j c 3 c c 4 c c c 3 c 3 c c c c 3 c w f 2 ] ] ^ & & & & & & # . $ $ $ @ @ ",
". + + + # . . ! & & & & & ] ^ ] q 3 3 c c 3 c c c c 3 j c m c c 4 c c c 3 c 3 c c c c 3 c c 3 3 x ] ] ^ & & & & & # # . $ $ @ @ ",
"$ $ $ @ @ @ + ! & & & & & ] ] ] 3 3 c c c a c c c c 3 j c c c c 4 b c c c c 3 c c c c s c c c 3 3 ] ] ] = & & & & + @ @ @ . . . ",
"$ $ @ @ @ $ $ y & & & & ] ] ] 3 z 3 c c c c c c A c 3 j c c c c 4 c c c c c 3 c c c c c c c c 3 B 3 ] | ] & & & & . # @ @ @ # # ",
". @ @ @ $ $ $ ) & & & , ] ] ] 3 C 3 c c c c c c c c 3 j c c c b 4 c c c c c 3 c 3 c c c c c c 3 C D ] ] ] * E & & . . . @ @ @ # ",
"+ @ @ # % $ @ ) & & & ] ] ] 3 3 c 3 c c c c c c c c 3 j c c c c 4 c c c c c 3 c c c c c c c c 3 c 3 3 ] ] ] & & & + + + . @ + + ",
". . # # . @ @ * & & & ] ^ ] 3 3 c 3 c c c c c c c c 3 j c c c a 4 c c c 3 b 3 c c c c c c c c 3 c b 3 ] ] ^ & & & $ $ # . $ $ $ ",
"# + + + . @ @ * & & & ] ] 3 f c c 3 c c c c c c c c 3 j c c c c 4 c c c c c 3 s F c c c c c c 3 c c f 3 ] ] & ' * $ # # $ $ $ # ",
"@ @ $ $ $ # # * & & & ] ] 3 3 c c 3 c c c c c c c c 3 j c c c 3 4 c c c c c 3 c c c b 3 3 c c 3 c A 3 3 ] ] G ! & @ @ @ % $ . @ ",
"@ @ @ $ $ # # * & & H ^ ] 3 I m c 3 c c c c c J c c 3 j c c c c 4 c c c c c 3 c c c j c c m c 3 c j c 3 ] ] ] & * @ @ . . . . . ",
". @ @ @ . . . * & * ] ^ x 3 c j c 3 c 3 c c c K c c 3 j c c c c 4 c c c c c 3 c c c j c A c c 3 c 3 c 3 L ] ] & * @ # + + + . . ",
". + + + . . . * & & ] | M f N F c 3 c 3 c c c c c c 3 j c c c c 4 c c c c c 3 c c c c c c c c 3 c 3 c f 3 ] ] & & . # # $ $ $ . ",
". . $ $ $ # @ * & & ] ] 3 3 c c c 3 c c c c c c c c 3 j c c c c 4 c c c c c 3 c c c c a c c c 3 c F c 3 3 ] ] & & . . @ @ $ $ $ ",
". . . $ $ $ @ * & & ] ] 3 3 c c c 3 c c c a c c c c 3 j c c c c 4 c m c c c 3 c c c c 3 c c c 3 c c c 3 3 ] ] & & + + @ @ # $ % ",
". . # # $ % @ ) & & ] | O P P P P P P P P P P P P P P P P P P Q 4 c P P P P P P P P P P P P P P P P P P O ] ] & & $ $ $ . . . $ ",
"+ + # # @ @ . ! ; & ] 1 O P P P P P P P P P P P P P P P P P P R 4 c P P P P P P P P P P P P P P P P P P O ] ] & & @ $ $ . @ @ @ ",
"$ $ $ . . . $ ; & & ] | O P P & C P P P P & C P P P P & C S P R 4 c P T C & P P P P C & T P P P U V W P O ] ] & X @ @ . @ @ @ . ",
". $ $ . . $ $ & & & ] ] O P & & C Y P P Z & C / P P P & C & P R 4 c P & C & P P P P C & & P P P C & & P O ( ] & ; # . @ + + + . ",
"# @ @ @ . % $ & & & ] ] O P P & & P P P P & & P P P P & & Z P R 4 c P ` & & P P P P & & T P P P & &  .P O ..] & ; . . $ $ $ . # ",
"# # @ @ @ $ # & & & ] ] O +.P P P P P P P P P P P P P P P P P R 4 c P P P P P P P P P P P P P P P P P @.O ] ] & ; . $ $ $ . . . ",
". + + + @ @ . & & = ] ] O O O O O O O O O O O O O O O O O O O I 4 c O O O O O O O O O O O O O O O O O O O ] ] & ; # % $ . @ @ @ ",
"@ . $ $ $ @ . & & * ] ] 3 #.c c c c c c c a c c c c 3 j c c c c 4 c c c c c 3 c c c c 3 c c c c c c c a 3 ] ] X ; @ @ @ . . @ @ ",
"@ . . $ $ $ # & & & ] ] 3 f c c c c c c c c c c c c 3 j c c c c 4 c c c c c 3 c c c c c c c c c c c c f 3 ] ] & * . @ @ @ + + + ",
". # # # $ % . & & & ] ] 3 c c c c c c c c c c c c c 3 j c c c c 4 c c c c c 3 c c c c c c c c c c c c c 3 ] ] & & + + + @ . $ $ ",
"@ . # @ @ $ . & & & ] ] 3 c c c c c c c c c c c c c 3 j c c c b 4 $.c c c c 3 c c c c c c c c c c c c c 3 ] ] & & $ $ . # # @ $ ",
"+ + @ @ @ . @ & & & ] ] 3 f c c c c c 3 c c c c c c 3 j c c c c 4 c c c c c 3 c c c c c c c c c c c c f 3 ] ] & & $ . . . @ @ @ ",
"$ $ $ @ . . + & & & ] ] 3 c c c c c c c c c c c c c 3 j c c c c 4 c c c c c 3 c c c c c c c c c c c c c 3 ] : & & @ . . @ @ @ # ",
"# $ $ . # $ $ & * E %.] 3 c c c c c c c c c c d 3 3 3 j c c c c 4 c c c c c 3 3 3 F c &.*.J c c c c c c 3 ] ] & & @ + + + @ . # ",
". @ @ @ $ $ $ & & & ] ] 3 c c j c c I c c 3 c c c c 3 j c 3 c c 4 c c c c c 3 c c c c c c 3 c c c c c c 3 ] ] & E . # $ $ $ . . ",
". . @ @ % $ . & & & ] ] 3 f c c c c c A c c c c c c 3 j c c 3 c 4 c c c c c 3 c c c c c c c c c c c c f 3 1 ] & & . . # $ $ @ . ",
"+ + # @ @ @ . & & & ] ] 3 c c c c c c c c c c c c c 3 j c c c c 4 c c c c c 3 c c c c c c c c c c c c c 3 =.] & & . . @ @ @ # + ",
"$ . . . + + + & & & ] ] 3 c c c c 3 c c c c c c c c 3 j c c c c 4 c c c c c 3 c c &.b c c m c c c c c c 3 ^ ] & & # # . . # $ $ ",
". . @ $ $ $ # & & & ] ] 3 f c c c 3 c c c c c c c c 3 3 3 b c c 4 c c I 3 3 3 c c -.c c c c c c j c c f 3 %.] & & # # @ @ $ $ $ ",
". . . $ $ @ # & & & ] ] 3 s c c c 3 c c c c c c c 3 3 j c c c c 4 c c c c c 3 c c -.c c K c c c j c c &.3 ] ] & & . @ @ @ % $ . ",
"# # # . @ @ @ & & & ] ] O P P P P P P P P P P P P P P P P P P c 4 c P P P P P P P P P P P P P P P P P P O ] ] & & + @ @ # . . . ",
"@ + + + . @ @ & & & ] ^ O P P P P P P P P P P P P P P P P P P R 4 c P P P P P P P P P P P P P P P P P P O ] ^ & & $ $ . . . @ @ ",
". . $ $ $ . . & & & ] t O P P & ;.P P P P & o P P P P & C >.P R 4 c P P C & P P P P ,.& P P P P '.).T P O ] ] & & $ $ $ . + + + ",
"$ . @ $ $ $ . & > & ] ^ O P & & C Y P P Z & C Z P P P & U & P R 4 c P & C & P P P P C & & P P P C & & P O ] ] & & @ $ % @ @ $ $ ",
"$ . . @ $ % . & ' = ] ] O P P & & P P P P & & P P P P & & !.P R 4 c P P & & P P P P & & P P P P & & ` P O ] ] & u @ @ # @ @ . $ ",
". . . . @ @ # & & & ] ( O O P P P P P P P P P P P P P P P P P R 4 c P P P P P P P P P P P P P P P P P ~.O ] ] & & @ + + + . . . ",
"+ + + . . # # & & & | | O O O O O O O O O O O O O O O O O O O a 4 c O O O O O O O O O O O O O O O O O O O ] ] & & $ $ $ . . . . ",
"$ $ . . . . # & & > ^ {.3 c c c c c c c c c c c c c 3 j c c *.3 4 3 3 c c c 3 c c c c c c c c c c c c c 3 ] ] & & $ $ . @ @ + + ",
"$ . . . . + + & & & ] ] 3 f c c c c c c c c c c c c 3 j c c c c 4 c c c c c 3 c c c c c c c c c c c c ].3 ] ] & & $ # # . $ $ $ ",
"@ . . # $ $ $ & & & ] ] 3 ^.c c 3 3 /.c c c c c c c 3 j c c c c 4 c c c c c 3 c c c c c c c c c c c c (.3 ] ] & & . @ @ @ $ $ @ ",
"@ . # $ $ $ . & & & ] ( 3 c c c c c c c c c c c c c 3 j c c c c 4 c c c c c 3 c _.3 3 3 c c c :.c c c c 3 1 ] & & . . @ @ @ . @ ",
". # # % $ . . & & & ] ^ 3 f c c c c c c <.c c c c c 3 j c c c c 4 c c c c c 3 c c c c c c c c j c c c Z 3 ( ] & & $ # + + + . . ",
". # # $ . . . & * & ] ] 3 3 3 I c c c c [.c c c c c 3 j c c c c 4 c c c c c 3 c c c c c c c c j c d 3 3 3 ] ] & & $ # # $ $ $ . "};
