/* XPM */
static char * boh_xpm[] = {
"16 16 31 1",
" 	c None",
".	c #FF0042",
"+	c #B44F87",
"@	c #EBD4AB",
"#	c #8B9BB5",
"$	c #C28569",
"%	c #FDAE35",
"&	c #BF4830",
"*	c #F6757A",
"=	c #3E8948",
"-	c #171523",
";	c #F77622",
">	c #E43D44",
",	c #104E89",
"'	c #265C42",
")	c #5A6988",
"!	c #2EE8F7",
"~	c #E8B796",
"{	c #63C64F",
"]	c #A32732",
"^	c #5B6986",
"/	c #FEE861",
"(	c #ECF0F1",
"_	c #B9704F",
":	c #3A4466",
"<	c #0099DC",
"[	c #D77643",
"}	c #67386C",
"|	c #733D3B",
"1	c #C0CCDC",
"2	c #E4A570",
".+@@+#$##%+&*=-;",
">,>,-'%),!'-+~{]",
",]^>;#/'(%_.*&,:",
":;#<;*%{.=<~'[&'",
"%,+#>}%-~.}+-,!&",
"&$$'|&$')(+)*$-/",
"*)^#%!#1=111>;@<",
"@%2-~,')#%%@)#+|",
"{[<=).~<:~%_.,[+",
"@@^#=<[}_::_}!=-",
"-=$>%,>,)1;~=/}}",
"~#=[[!1:[:&#=*!!",
"-{2],.{$1~_>(#-]",
"_-!}&%!@'2}+}:):",
"${2)-])<%]_{;';[",
"|/}@]#1=2<|)[1_#"};
