/* XPM */
static char * osiidiana_xpm[] = {
"16 16 7 1",
" 	c None",
".	c #0F0B15",
"+	c #181321",
"@	c #431F78",
"#	c #311954",
"$	c #281443",
"%	c #3A1C64",
"..+..+@@#+....++",
".$..$#....#@%+..",
"+.+$+...$...$@$.",
"..$..+$$#....+..",
".$@@%$.++$+.$$#.",
"$%$++.+..+....$$",
".......$%@$.++..",
".$##$....$@#..+$",
"....+$+....$$+.+",
"$$+.....+$...$+.",
".....$+...+....+",
"..$$#@%#..$@#...",
"+$.#@#.$$..+@#.+",
".+.....#@$.....$",
"....+$+..@%$.+..",
"..$..........$.."};
