/* XPM */
static char * text1_xpm[] = {
"16 16 7 1",
" 	c None",
".	c #733E39",
"+	c #3E2731",
"@	c #D77643",
"#	c #A22633",
"$	c #BE4A2F",
"%	c #B86F50",
"..++@+++..++@+++",
".++#$@++.++#$@++",
"++##$$@+++##$$@+",
"+###$$$$+###$$$$",
"%+##$##+%+##$##+",
".%+###++.%+###++",
"..%+#+++..%+#+++",
"....++++....++++",
"..++@+++..++@+++",
".++#$@++.++#$@++",
"++##$$@+++##$$@+",
"+###$$$$+###$$$$",
"%+##$##+%+##$##+",
".%+###++.%+###++",
"..%+#+++..%+#+++",
"....++++....++++"};
