/* XPM */
static char * text_xpm[] = {
"16 16 6 1",
" 	c None",
".	c #FEBD40",
"+	c #F6CC3A",
"@	c #F9D241",
"#	c #F7B73A",
"$	c #EEAF34",
"..+@.##+@.###$$.",
"#+$#@$$$#@.#+@.$",
"#@$#@#+$#@$+$#$$",
"#$@#$##+@$$+$$@$",
"@$#.++#.$$##+@##",
"$##@#$+..@+#..#$",
"@#.@$$@$@#$+#.#@",
"#@.#$@.$@$$+$##$",
"$+.##$$##+$$$#@$",
"+#.$$++#.###$##@",
"#$#$+$$+.#++##.#",
".@+$@$#@$@##+..#",
"@##+#@##$+$$@$@#",
"@$$@##$+#.$@#+$$",
".@$$#@$#+#$##+$.",
"$..###@+##@+$.+@"};
